<svg xmlns="http://www.w3.org/2000/svg" xmlns:xlink="http://www.w3.org/1999/xlink" viewBox="0 0 700.19 119.94"><defs><style>.a{fill:none;}.b{fill:#ff507e;}.c{fill:#fff;}.d{fill:#43a2ab;}.e{clip-path:url(#a);}.f{fill:url(#b);}</style><clipPath id="a" transform="translate(-5.14 -8.55)"><path class="a" d="M346.94,66.63a32,32,0,0,0,5.23,17.57L379.44,127a2.79,2.79,0,0,0,2,1.28,2.93,2.93,0,0,0,3-1.34l27.36-43.23a32,32,0,0,0,4.94-17.12c0-18.47-15.64-33.47-34.87-33.47s-34.87,15-34.87,33.47"/></clipPath><linearGradient id="b" x1="-1912.82" y1="1095.91" x2="-1911.82" y2="1095.91" gradientTransform="matrix(69.74, 0, 0, -69.74, 133740.43, 76500.3)" gradientUnits="userSpaceOnUse"><stop offset="0" stop-color="#43a2ab"/><stop offset="0.5" stop-color="#43a2ab"/><stop offset="0.5" stop-color="#ff507e"/><stop offset="1" stop-color="#ff507e"/></linearGradient></defs><title>brand</title><path class="b" d="M697.5,35.25a8,8,0,0,1,5.61,2,6.54,6.54,0,0,1,2.22,5V91.53q0,10.65-4.51,17a25,25,0,0,1-12.07,9.09,48.74,48.74,0,0,1-17,2.78,71.89,71.89,0,0,1-8.87-.58,32.86,32.86,0,0,1-7.7-1.73c-2.61-1-4.42-2.26-5.42-3.77a5.11,5.11,0,0,1-.58-4.8A7.41,7.41,0,0,1,653,104.9a7.25,7.25,0,0,1,5.48-.29q2.09.58,5.48,1.8a23.16,23.16,0,0,0,7.83,1.21,29.63,29.63,0,0,0,10-1.44,11.17,11.17,0,0,0,6-4.87c1.34-2.28,2-5.38,2-9.32V84.23L692.54,87A20.8,20.8,0,0,1,687,93.32a23.68,23.68,0,0,1-7.89,3.77,39.38,39.38,0,0,1-10.44,1.27,24.64,24.64,0,0,1-12.07-2.84,20.33,20.33,0,0,1-8-7.87,22.9,22.9,0,0,1-2.87-11.52V42.31a6.54,6.54,0,0,1,2.22-5,8.8,8.8,0,0,1,11.22,0,6.54,6.54,0,0,1,2.22,5V72q0,7.53,3.72,10.59t10.37,3.07a17.12,17.12,0,0,0,7.7-1.56A11,11,0,0,0,688,79.43a15.27,15.27,0,0,0,1.7-7.47V42.31a6.54,6.54,0,0,1,2.22-5,8,8,0,0,1,5.61-2" transform="translate(-5.14 -8.55)"/><path class="b" d="M552.66,11.51a8.11,8.11,0,0,1,5.61,2,6.49,6.49,0,0,1,2.22,5.09V90.14a6.54,6.54,0,0,1-2.22,5,8.8,8.8,0,0,1-11.22,0,6.54,6.54,0,0,1-2.22-5V84.46l2.87,1.05a6.14,6.14,0,0,1-1.83,3.64,23.79,23.79,0,0,1-5,4.23,31.34,31.34,0,0,1-7.37,3.53,28.17,28.17,0,0,1-9.2,1.45A32.69,32.69,0,0,1,508,94.25,30.48,30.48,0,0,1,496.48,82.9a32.21,32.21,0,0,1-4.24-16.62,32.43,32.43,0,0,1,4.24-16.73A30.71,30.71,0,0,1,507.9,38.2a31.45,31.45,0,0,1,15.92-4.11,33.75,33.75,0,0,1,10.31,1.5,32.21,32.21,0,0,1,8.15,3.83,23.11,23.11,0,0,1,5.35,4.69c1.26,1.58,1.9,2.91,1.9,4l-4.7,1.51v-31a6.54,6.54,0,0,1,2.22-5,8,8,0,0,1,5.61-2" transform="translate(-5.14 -8.55)"/><path class="c" d="M526.65,45.15h0a15.5,15.5,0,0,0-15.5,15.5V71.44a15.5,15.5,0,0,0,31,0V60.65a15.5,15.5,0,0,0-15.5-15.5" transform="translate(-5.14 -8.55)"/><path class="b" d="M627.43,11.51a8.11,8.11,0,0,1,5.61,2,6.49,6.49,0,0,1,2.22,5.09V90.14a6.54,6.54,0,0,1-2.22,5,8.8,8.8,0,0,1-11.22,0,6.51,6.51,0,0,1-2.22-5V84.46l2.87,1.05a6.14,6.14,0,0,1-1.83,3.64,23.79,23.79,0,0,1-5,4.23,31.53,31.53,0,0,1-7.37,3.53,28.21,28.21,0,0,1-9.2,1.45,32.69,32.69,0,0,1-16.31-4.11A30.48,30.48,0,0,1,571.25,82.9,32.21,32.21,0,0,1,567,66.28a32.43,32.43,0,0,1,4.24-16.73A30.71,30.71,0,0,1,582.67,38.2a31.45,31.45,0,0,1,15.92-4.11,33.75,33.75,0,0,1,10.31,1.5,32.21,32.21,0,0,1,8.15,3.83,23.11,23.11,0,0,1,5.35,4.69,7,7,0,0,1,1.89,4l-4.69,1.51v-31a6.51,6.51,0,0,1,2.22-5,8,8,0,0,1,5.61-2" transform="translate(-5.14 -8.55)"/><path class="c" d="M600.75,45.37h0a15.5,15.5,0,0,0-15.5,15.5V71.66a15.5,15.5,0,0,0,31,0V60.87a15.5,15.5,0,0,0-15.5-15.5" transform="translate(-5.14 -8.55)"/><path class="b" d="M477.89,35.25a8,8,0,0,1,5.61,2,6.54,6.54,0,0,1,2.22,5V71.73q0,12.27-7.7,19.45t-22.19,7.18q-14.47,0-22.11-7.18t-7.64-19.45V42.31a6.54,6.54,0,0,1,2.22-5,8.8,8.8,0,0,1,11.22,0,6.54,6.54,0,0,1,2.22,5V71.73c0,4.7,1.18,8.2,3.52,10.47s5.88,3.42,10.57,3.42,8.36-1.14,10.7-3.42,3.53-5.77,3.53-10.47V42.31a6.54,6.54,0,0,1,2.22-5,8,8,0,0,1,5.61-2" transform="translate(-5.14 -8.55)"/><path class="d" d="M332.53,88.34a6.47,6.47,0,0,1-2.28,5,8.23,8.23,0,0,1-5.68,2,7.83,7.83,0,0,1-5.48-2,6.53,6.53,0,0,1-2.21-5V16.77a6.46,6.46,0,0,1,2.28-5,8.24,8.24,0,0,1,5.68-2,7.75,7.75,0,0,1,5.54,2,6.61,6.61,0,0,1,2.15,5Z" transform="translate(-5.14 -8.55)"/><path class="d" d="M278.64,96.56a42.24,42.24,0,0,1-19.24-4.11,30.35,30.35,0,0,1-12.53-11.17,29.72,29.72,0,0,1-4.37-16q0-10.41,4.76-17.77a32,32,0,0,1,12.46-11.29A35.27,35.27,0,0,1,276,32.29a33,33,0,0,1,12.6,2.43,34.74,34.74,0,0,1,10.5,6.66,32.33,32.33,0,0,1,7.24,9.79A26.91,26.91,0,0,1,309.05,63a5.77,5.77,0,0,1-2.48,4.52,9,9,0,0,1-5.48,1.73H251.24l-3.91-11.58h47.89L292.35,60V56.84a10,10,0,0,0-2.68-6,17.23,17.23,0,0,0-6-4.23A19,19,0,0,0,276,45a27.48,27.48,0,0,0-7.3.93,14.56,14.56,0,0,0-5.88,3.12A15,15,0,0,0,258.94,55a26.16,26.16,0,0,0-1.44,9.38A18.43,18.43,0,0,0,260.44,75,19.14,19.14,0,0,0,268,81.57a22.26,22.26,0,0,0,9.85,2.25,34.29,34.29,0,0,0,7.7-.69,18.28,18.28,0,0,0,4.63-1.68c1.18-.66,2.24-1.22,3.2-1.68a11,11,0,0,1,4.44-1,6.76,6.76,0,0,1,4.76,1.74,5.34,5.34,0,0,1,1.89,4c0,2.08-1.22,4-3.65,5.67a31.66,31.66,0,0,1-9.53,4.46,42.13,42.13,0,0,1-12.66,1.91" transform="translate(-5.14 -8.55)"/><path class="d" d="M183.38,33.45a9.67,9.67,0,0,1,4.57,1.1,7,7,0,0,1,3.13,3.3l19.19,38.91-2.88,1.16L227,38q2.22-4.63,6.91-4.41a7.66,7.66,0,0,1,5.29,1.8,5.71,5.71,0,0,1,2,4.46,5.46,5.46,0,0,1-.32,1.74,18.34,18.34,0,0,1-.72,1.73L215.75,91a7.44,7.44,0,0,1-6.66,4.4,7.76,7.76,0,0,1-4.76-.81A7.5,7.5,0,0,1,200.87,91L176.6,43.29c-.18-.38-.37-.88-.59-1.5a6.59,6.59,0,0,1-.32-2.2,5.81,5.81,0,0,1,2.08-4.11,7.73,7.73,0,0,1,5.61-2" transform="translate(-5.14 -8.55)"/><path class="d" d="M163.55,32.29a8.16,8.16,0,0,1,5.61,2,6.49,6.49,0,0,1,2.22,5.09v49a6.54,6.54,0,0,1-2.22,5,8.8,8.8,0,0,1-11.22,0,6.54,6.54,0,0,1-2.22-5V82.67l2.87,1a6.14,6.14,0,0,1-1.83,3.64,23.71,23.71,0,0,1-4.95,4.23,31.62,31.62,0,0,1-7.38,3.53,28.13,28.13,0,0,1-9.2,1.45,32.69,32.69,0,0,1-16.31-4.11A30.48,30.48,0,0,1,107.37,81.1a32.3,32.3,0,0,1-4.24-16.62,32.56,32.56,0,0,1,4.24-16.73A30.86,30.86,0,0,1,118.79,36.4a31.47,31.47,0,0,1,15.92-4.11A33.44,33.44,0,0,1,145,33.8a32.09,32.09,0,0,1,8.16,3.82,23.78,23.78,0,0,1,5.35,4.69,7,7,0,0,1,1.89,4l-4.7,1.51V39.35a6.54,6.54,0,0,1,2.22-5,8,8,0,0,1,5.61-2" transform="translate(-5.14 -8.55)"/><path class="c" d="M135.5,43.34h0A15.5,15.5,0,0,0,120,58.84V69.62a15.5,15.5,0,0,0,31,0V58.84a15.5,15.5,0,0,0-15.5-15.5" transform="translate(-5.14 -8.55)"/><path class="d" d="M66.34,95.4a8,8,0,0,1-5.62-2,6.53,6.53,0,0,1-2.21-5V40.51a6.53,6.53,0,0,1,2.21-5,8.78,8.78,0,0,1,11.23,0,6.56,6.56,0,0,1,2.21,5V51.4l-.91-7.76A18.25,18.25,0,0,1,77,38.72a21.7,21.7,0,0,1,5.15-3.59A25,25,0,0,1,88.26,33a30.76,30.76,0,0,1,6.52-.7,10.82,10.82,0,0,1,6.59,2,5.7,5.7,0,0,1,2.68,4.63q0,3.82-2.22,5.5A7.84,7.84,0,0,1,97,46.07a12,12,0,0,1-4.5-.81,12.38,12.38,0,0,0-4.63-.81,12.68,12.68,0,0,0-4.77,1,13,13,0,0,0-4.43,3.07,15.83,15.83,0,0,0-3.27,5.16,19.36,19.36,0,0,0-1.24,7.23V88.34a6.57,6.57,0,0,1-2.21,5,8,8,0,0,1-5.61,2" transform="translate(-5.14 -8.55)"/><path class="d" d="M12.44,34.61H43.37a7.59,7.59,0,0,1,5.22,1.85,6,6,0,0,1,2.09,4.63,5.66,5.66,0,0,1-2.09,4.46,7.7,7.7,0,0,1-5.22,1.8H12.44a7.55,7.55,0,0,1-5.22-1.86,5.93,5.93,0,0,1-2.08-4.63A5.66,5.66,0,0,1,7.22,36.4a7.75,7.75,0,0,1,5.22-1.79m14-14.48a7.75,7.75,0,0,1,5.54,2,6.61,6.61,0,0,1,2.15,5V78.73a4.56,4.56,0,0,0,.72,2.66,4,4,0,0,0,2,1.51,8.08,8.08,0,0,0,5.54-.06,8,8,0,0,1,3-.52,4.61,4.61,0,0,1,3.32,1.5A5.67,5.67,0,0,1,50.15,88c0,2.16-1.32,3.94-4,5.33a18.12,18.12,0,0,1-8.54,2.08,50.52,50.52,0,0,1-6.07-.4,17.76,17.76,0,0,1-6.26-2,12.68,12.68,0,0,1-4.9-4.81Q18.45,85,18.45,79.31V27.19a6.46,6.46,0,0,1,2.28-5,8.24,8.24,0,0,1,5.68-2" transform="translate(-5.14 -8.55)"/><g class="e"><rect class="f" x="341.8" y="24.61" width="69.74" height="95.33"/><path class="c" d="M382.16,47.36h0a15.5,15.5,0,0,0-15.5,15.5V73.64a15.5,15.5,0,0,0,31,0V62.86a15.5,15.5,0,0,0-15.5-15.5" transform="translate(-5.14 -8.55)"/></g><path class="d" d="M347,15.53a7.12,7.12,0,0,1,7.27-7h.7a7.12,7.12,0,0,1,7.27,7v51.3a7.13,7.13,0,0,1-7.27,7h-.7a7.13,7.13,0,0,1-7.27-7" transform="translate(-5.14 -8.55)"/></svg>