<svg xmlns="http://www.w3.org/2000/svg" xmlns:xlink="http://www.w3.org/1999/xlink" viewBox="0 0 69.74 119.94"><defs><style>.a{fill:none;}.b{clip-path:url(#a);}.c{fill:url(#b);}.d{fill:#fff;}.e{fill:#43a2ab;}</style><clipPath id="a"><path class="a" d="M0,58.08A32,32,0,0,0,5.23,75.65l27.28,42.84a2.72,2.72,0,0,0,2,1.28,2.93,2.93,0,0,0,3-1.33L64.8,75.21a32.08,32.08,0,0,0,4.94-17.13c0-18.46-15.63-33.47-34.87-33.47S0,39.62,0,58.08"/></clipPath><linearGradient id="b" x1="-2259.76" y1="1087.37" x2="-2258.76" y2="1087.37" gradientTransform="matrix(69.74, 0, 0, -69.74, 157593.69, 75904.37)" gradientUnits="userSpaceOnUse"><stop offset="0" stop-color="#43a2ab"/><stop offset="0.5" stop-color="#43a2ab"/><stop offset="0.5" stop-color="#ff507e"/><stop offset="1" stop-color="#ff507e"/></linearGradient></defs><title>logo</title><g class="b"><rect class="c" y="24.61" width="69.74" height="95.33"/><path class="d" d="M35.22,38.82h0a15.5,15.5,0,0,0-15.5,15.5V65.1a15.5,15.5,0,0,0,31,0V54.32a15.5,15.5,0,0,0-15.5-15.5"/></g><path class="e" d="M0,7A7.14,7.14,0,0,1,7.29,0H8a7.14,7.14,0,0,1,7.28,7V58.29a7.14,7.14,0,0,1-7.28,7H7.29a7.14,7.14,0,0,1-7.28-7"/></svg>